{"title":"Helix S02 1080p BluRay HEVC DD5.1 x265","uid":15940277,"size":9177556316,"categoryP":"video","categoryS":"hd___tv_shows","magnet":"?xt=urn:btih:993e7a6b1c36d4bbeda412cdca285ee692190bb5&amp;dn=Helix+S02+1080p+BluRay+HEVC+DD5.1+x265&amp;tr=udp%3A%2F%2Ftracker.leechers-paradise.org%3A6969&amp;tr=udp%3A%2F%2Fzer0day.ch%3A1337&amp;tr=udp%3A%2F%2Fopen.demonii.com%3A1337&amp;tr=udp%3A%2F%2Ftracker.coppersurfer.tk%3A6969&amp;tr=udp%3A%2F%2Fexodus.desync.com%3A6969","seeders":1,"leechers":1,"uploader":"nayhtut","files":26,"time":1475447275,"description":"[Screenshots Gallery Link]\r\n\r\n\r\n[https://postimg.org/gallery/2rjsptara]\r\n\r\n\r\nSource: Helix S02 1080p BluRay x264-SHORTBREHD (Size: 42.64 GB)\r\n \r\n\r\nContains:  Helix Season Two Episode 01 to 13\r\n\r\nFormat                                   : Matroska\r\nFormat version                           : Version 4 / Version 2\r\nFile size                                : 8.54 GiB\r\nDuration                                 : Various\r\nOverall bit rate                         : 2 261 Kbps\r\nWriting application                      : Lavf57.25.100\r\nWriting library                          : Lavf57.25.100\r\n\r\nVideo\r\n\r\nID                                       : 1\r\nFormat                                   : V_MPEGH/ISO/HEVC\r\nCodec ID                                 : V_MPEGH/ISO/HEVC\r\nDuration                                 : 39mn 52s\r\nBit rate                                 : 1 832 Kbps\r\nWidth                                    : 1 920 pixels\r\nHeight                                   : 1 080 pixels\r\nDisplay aspect ratio                     : 16:9\r\nFrame rate                               : 25.000 fps\r\nBits/(Pixel*Frame)                       : 0.035\r\nStream size                              : 522 MiB (81%)\r\nWriting library                          : Lavc57.48.101 libx265\r\nLanguage                                 : English\r\nDefault                                  : Yes\r\nForced                                   : No\r\nDURATION                                 : 00:39:52.451000000\r\n\r\nAudio\r\n\r\nID                                       : 2\r\nFormat                                   : AC-3\r\nFormat/Info                              : Audio Coding 3\r\nMode extension                           : CM (complete main)\r\nFormat settings, Endianness              : Big\r\nCodec ID                                 : A_AC3\r\nDuration                                 : 39mn 52s\r\nBit rate mode                            : Constant\r\nBit rate                                 : 384 Kbps\r\nChannel(s)                               : 6 channels\r\nChannel positions                        : Front: L C R, Side: L R, LFE\r\nSampling rate                            : 48.0 KHz\r\nBit depth                                : 16 bits\r\nCompression mode                         : Lossy\r\nStream size                              : 110 MiB (17%)\r\nWriting library                          : Lavc57.24.102 ac3\r\nLanguage                                 : English\r\nDefault                                  : Yes\r\nForced                                   : No\r\nDURATION                                 : 00:39:52.447000000\r\n\r\nText\r\n\r\nID                                       : 3\r\nFormat                                   : ASS\r\nCodec ID                                 : S_TEXT/ASS\r\nCodec ID/Info                            : Advanced Sub Station Alpha\r\nCompression mode                         : Lossless\r\nWriting library                          : Lavc57.48.101 ssa\r\nLanguage                                 : English\r\n\r\nMenu\r\n\r\n00:00:00.000                             : :00:00:00.000\r\n00:01:46.106                             : :00:01:46.106\r\n00:10:21.454                             : :00:10:21.454\r\n00:18:53.466                             : :00:18:53.466\r\n00:24:41.605                             : :00:24:41.605\r\n00:29:13.585                             : :00:29:13.585\r\n00:36:17.467                             : :00:36:17.467\r\n00:39:31.494                             : :00:39:31.494","torrent":{"xt":"urn:btih:993e7a6b1c36d4bbeda412cdca285ee692190bb5","amp;dn":"Helix+S02+1080p+BluRay+HEVC+DD5.1+x265","amp;tr":["udp%3A%2F%2Ftracker.leechers-paradise.org%3A6969","udp%3A%2F%2Fzer0day.ch%3A1337","udp%3A%2F%2Fopen.demonii.com%3A1337","udp%3A%2F%2Ftracker.coppersurfer.tk%3A6969","udp%3A%2F%2Fexodus.desync.com%3A6969"],"infoHash":"993e7a6b1c36d4bbeda412cdca285ee692190bb5","infoHashBuffer":{"type":"Buffer","data":[153,62,122,107,28,54,212,187,237,164,18,205,202,40,94,230,146,25,11,181]},"announce":[],"urlList":[]}}